#!OML:ASF F:\VICON\USERDATA\INSTALL\rory3\rory3.ASF
:FULLY-SPECIFIED
:DEGREES
39
root 0.13919423711410095 18.09373311188073 5.091545516790332 -2.5470751972376657 1.0190024022408226 -4.029651072620479
lfemur -10.155672394265089 1.1076609202286294 -14.058605509213884
ltibia 75.94068305228086
lfoot 5.825516738240862 -18.746543942925392
ltoes -3.9651165591359563
rfemur -11.63446416096382 5.225084179787792 31.666776975786178
rtibia 37.392639401384585
rfoot -9.70752867857308 -6.067005544387952
rtoes 6.583045363589447
lowerback nan -0.3345705467335105 2.0076417091350565
upperback 0.12099895638829672 -0.553382971714085 3.0480055833784254
thorax -4.293431404099687 -0.2865193250744255 1.6577213741353745
lowerneck -15.476189872069101 -2.8026838890794656 -1.5593681107116633
upperneck 20.78068708762534 -4.252790841428865 0.6589420056696373
head 9.33971158957476 -1.9099208763709037 -0.2584505208694279
lclavicle -1.1926221114798497e-15 3.9103704313117025e-17
lhumerus -29.07581581831485 -0.3990528895306307 84.26274287512223
lradius 28.08881425200967
lwrist 5.015346223840568
lhand -28.494292579011262 23.994221108467986
lfingers nan
lthumb -1.5757838424432606 54.87416135089356
rclavicle -2.6408268756590047e-15 -1.003471990557574e-15
rhumerus -29.35987150212469 -24.907874733038412 -74.06222811209994
rradius 19.908506904299863
rwrist 11.773209119011073
rhand -17.98609401811828 nan
rfingers nan
rthumb 8.007365591083719 -5.901159362843569
40
root 0.1195867604149593 18.093545019313325 5.540324568111475 -2.6388779623997154 0.27259452700848086 -4.5230458627653025
lfemur -15.387530592010325 3.524083745194565 -13.862883350839553
ltibia 76.47045632633933
lfoot 0.7555910280169096 -16.038040125084787
ltoes -4.086458435428146
rfemur -9.156575302473172 5.372123751245637 32.29851396224424
rtibia 36.68071349115964
rfoot -11.707902027538594 -6.325864348924965
rtoes 6.102954928033231
lowerback nan 0.16403123461448196 2.3958133490935833
upperback 0.33625077469248166 0.2847604951840287 2.8771903013381346
thorax -4.09009552551713 0.06691406470277492 1.1454544019958206
lowerneck -15.272523779450509 -2.7717446072093352 -1.5581731912862107
upperneck 20.907033766503332 -4.423380194240984 0.6091911902209224
head 9.624086034138582 -2.0000707851680324 -0.19987280655624226
lclavicle -2.438114537942451e-15 -8.766046646421323e-16
lhumerus -30.266170341707934 -0.08086577790216909 84.65498388726537
lradius 27.577973005182542
lwrist 5.327706274186856
lhand -28.530111068866443 23.743962224683372
lfingers nan
lthumb -1.401053301185338 54.66762839442576
rclavicle -2.7463793297555695e-15 -2.56387282490214e-15
rhumerus -27.54364002312743 -20.916527946664633 -76.20225689192988
rradius 20.454407077502715
rwrist 10.352687991852518
rhand -18.135941652150326 nan
rfingers nan
rthumb 7.994563194744062 -7.3380352886458375
41
root 0.1085083659596644 18.07288640112363 6.010051949542206 -2.679179874108466 -0.42815483112403463 -4.784052207487575
lfemur -20.695402514865243 5.222244241645016 -13.4469049413784
ltibia 74.02822297716278
lfoot -1.2203886606392036 -11.366350997937941
ltoes 2.841553148954664
rfemur -7.156905736922363 5.276161480094168 33.24171268720385
rtibia 36.11687744474578
rfoot -13.423444623726109 -6.12224685363207
rtoes 5.993426136634279
lowerback nan 0.5454349172316217 3.087438665724779
upperback 0.47493899355142194 1.025046669728493 2.8491133733351686
thorax -3.7252298427956303 0.4018754316550031 0.5479029823865995
lowerneck -15.08440308053009 -2.800208899416257 -1.3634519395674778
upperneck 21.078126688342415 -4.541223026405827 0.5508064667661176
head 9.591589256018727 -2.04827983584302 -0.18973812589158295
lclavicle -4.830400196698774e-15 -1.39630622133575e-15
lhumerus -31.175783669812823 0.6181490584386022 84.92574161128617
lradius 27.38981860822068
lwrist 5.470807109376281
lhand -28.248620000264 23.521148136932062
lfingers nan
lthumb -1.6565370440845473 53.09438586960561
rclavicle -4.548082827318144e-15 -1.6345260525171515e-15
rhumerus -25.766965853444066 -17.770689180204208 -77.9831689514674
rradius 21.773188865483924
rwrist 8.39340834139253
rhand -18.31244239357643 nan
rfingers nan
rthumb 7.694389583238553 -8.508434932317424
42
root 0.11385844439655812 18.03863273244249 6.866813282423499 -2.3607892536613058 -1.1976686261125535 -5.38565650894774
lfemur -24.6520135631706 6.055169796537153 -13.448991891777322
ltibia 69.57397945635284
lfoot -1.075817227364805 -6.226439826872648
ltoes 0.013948281480573144
rfemur -5.720395332607172 5.030048441997878 33.73036372879515
rtibia 36.16827050320335
rfoot -15.109126054229815 -6.103270353749875
rtoes 5.019243000757221
lowerback nan 0.8955414765016957 3.70479041274072
upperback 0.45046631390311337 1.5670432789991378 2.80872510591656
thorax -4.13190694310161 0.6112260900902253 0.24536386471605054
lowerneck -15.061739337358876 -2.9240680106898744 -1.3865356228012042
upperneck 20.973795949929528 -4.589792355986537 0.5142254964756494
head 9.579943248462673 -2.0919636932247823 -0.14115240561417391
lclavicle -8.38269098269313e-16 3.1852012651571154e-15
lhumerus -32.3776219772463 1.1845326261395681 84.75654160140758
lradius 27.522617369433938
lwrist 5.7206890236059875
lhand -28.754281581398338 22.548312404759354
lfingers nan
lthumb -1.7262008599741523 53.391772624196086
rclavicle -2.5336744872948902e-15 2.196734536341191e-15
rhumerus -24.447320705354542 -14.641740525997871 -79.37132816338935
rradius 23.779163026895993
rwrist 5.067962866115843
rhand -18.75340708948872 nan
rfingers nan
rthumb 7.52423860504509 -6.235761864910462
43
root 0.11964114363444261 17.982379966445478 7.376686141789536 -1.9410566989642006 -2.037420463290931 -5.873336384049857
lfemur -27.68687657501249 6.110004615540252 -12.950751479280953
ltibia 62.60924892931352
lfoot -0.5623636609861711 -2.7116726910094777
ltoes 1.3600094661591209
rfemur -4.4554922720785815 4.766594295515125 34.42478682471076
rtibia 34.65483174217651
rfoot -16.95643497054379 -6.278492608689223
rtoes 4.4199705190222405
lowerback nan 1.233706925680876 4.638435409023305
upperback 0.4045087866893093 2.078711319544295 2.8068234039857978
thorax -4.574547311798666 0.8899748934839944 -0.33764046105220014
lowerneck -15.253729645706272 -3.006884302253795 -1.3461433156071032
upperneck 20.98805280488476 -4.601161700467571 0.508100194415227
head 9.501037612537841 -2.07054380058262 -0.07665286984292664
lclavicle -8.273162514812273e-15 -2.8325344951065667e-15
lhumerus -33.377257351320736 1.5167650539133275 84.7991978610793
lradius 28.023199866721335
lwrist 6.347258057292427
lhand -29.050788592595396 22.015379671597252
lfingers nan
lthumb -2.3157639134653207 52.43061955396651
rclavicle -4.429365987971875e-15 -2.0097892628954583e-16
rhumerus -22.950568901871435 -12.15715511268343 -80.42746891093661
rradius 25.563477424822565
rwrist 2.3600022076461724
rhand -18.926219820383803 nan
rfingers nan
rthumb 7.659632872824547 -5.2005301505216295
